<svg xmlns="http://www.w3.org/2000/svg" viewBox="0 0 2600 1340" width="2600" height="1340">
  <defs>
    <style>
      text { font-family: 'Segoe UI', Arial, sans-serif; }
      .title { font-size: 22px; font-weight: bold; fill: #000; }
      .subtitle { font-size: 13px; fill: #555; }
      .section-label { font-size: 16px; font-weight: bold; fill: #000; }
      .room-label { font-size: 8px; fill: #444; }
      .cluster-label { font-size: 10px; font-weight: bold; fill: #000; }
      .cluster-count { font-size: 9px; fill: #666; font-style: italic; }
      .legend-text { font-size: 10px; fill: #333; }
      .legend-title { font-size: 12px; font-weight: bold; fill: #000; }
      .unknown-label { font-size: 14px; fill: #aaa; font-style: italic; }
      .assumption { font-size: 9px; fill: #777; font-style: italic; }
      .wall { fill: #111; stroke: none; }
      .corridor { fill: #ddd; stroke: #888; stroke-width: 0.5; }
      .room { fill: #fff; stroke: #333; stroke-width: 0.7; }
      .room-large { fill: #f5f5f5; stroke: #333; stroke-width: 0.7; }
      .balcony { fill: #eee; stroke: #666; stroke-width: 1; }
      .pillar { fill: #444; stroke: #222; stroke-width: 0.5; }
      .stairs { fill: #e5e5e5; stroke: #555; stroke-width: 0.7; }
      .window-mark { fill: #ccc; stroke: #888; stroke-width: 0.5; }
      .section-divider { fill: none; stroke: #000; stroke-width: 1.5; stroke-dasharray: 10,4; }
      .dashed-outline { fill: none; stroke: #aaa; stroke-width: 1; stroke-dasharray: 6,3; }
    </style>
    <pattern id="rockPattern" x="0" y="0" width="16" height="16" patternUnits="userSpaceOnUse">
      <rect width="16" height="16" fill="#888"/>
      <path d="M0,8 Q4,4 8,8 Q12,12 16,8" stroke="#666" stroke-width="0.6" fill="none"/>
      <path d="M0,4 Q4,1 8,4 Q12,7 16,4" stroke="#777" stroke-width="0.3" fill="none"/>
      <path d="M0,12 Q4,10 8,12 Q12,14 16,12" stroke="#777" stroke-width="0.3" fill="none"/>
    </pattern>
    <pattern id="unknownHatch" x="0" y="0" width="8" height="8" patternUnits="userSpaceOnUse">
      <rect width="8" height="8" fill="#f0f0f0"/>
      <path d="M0,8 L8,0" stroke="#ccc" stroke-width="0.5"/>
    </pattern>
    <pattern id="balconyTile" x="0" y="0" width="24" height="24" patternUnits="userSpaceOnUse">
      <rect width="24" height="24" fill="#e8e8e8"/>
      <rect x="0" y="0" width="11" height="11" fill="#ddd" stroke="#ccc" stroke-width="0.3"/>
      <rect x="12" y="12" width="11" height="11" fill="#ddd" stroke="#ccc" stroke-width="0.3"/>
    </pattern>
    <!-- Clip path for gentle curve - explored section -->
    <clipPath id="curveClipLeft">
      <path d="M0,0 Q600,-15 1150,-5 L1150,800 Q600,815 0,800 Z"/>
    </clipPath>
    <clipPath id="curveClipRight">
      <path d="M0,-5 Q500,-15 1000,0 L1000,800 Q500,815 0,800 Z"/>
    </clipPath>
  </defs>

  <rect width="2600" height="1100" fill="#fafafa"/>

  <text x="1300" y="32" text-anchor="middle" class="title">URITHIRU — LOWER LEVEL, SOUTHERN ARC</text>
  <text x="1300" y="50" text-anchor="middle" class="subtitle">Perimeter Sections 14 &amp; 15 · Planned for occupation</text>

  <!-- ==================== -->
  <!-- EXPLORED SECTION (LEFT) -->
  <!-- ==================== -->
  <g transform="translate(60, 60)">
    <text x="550" y="20" text-anchor="middle" class="section-label">SECTION 14 — SURVEYED</text>

    <!-- Gentle curve wrapper -->
    <g clip-path="url(#curveClipLeft)">

      <!-- Outer balcony -->
      <path d="M20,35 Q550,20 1100,30 L1100,165 Q550,155 20,170 Z" fill="url(#balconyTile)"/>
      <path d="M20,35 Q550,20 1100,30 L1100,165 Q550,155 20,170 Z" fill="none" stroke="#666" stroke-width="1"/>
      <!-- Railing -->
      <path d="M20,40 Q550,25 1100,35" fill="none" stroke="#333" stroke-width="2"/>
      <text x="550" y="100" text-anchor="middle" class="cluster-label">Open Balcony</text>

      <!-- Tower outer wall - curved -->
      <path d="M20,168 Q550,153 1100,163 L1100,176 Q550,166 20,181 Z" fill="#111"/>
      <!-- Windows -->
      <rect x="80" y="170" width="10" height="5" class="window-mark"/>
      <rect x="160" y="168" width="10" height="5" class="window-mark"/>
      <rect x="240" y="167" width="10" height="5" class="window-mark"/>
      <rect x="320" y="166" width="10" height="5" class="window-mark"/>
      <rect x="400" y="165" width="10" height="5" class="window-mark"/>
      <rect x="480" y="164" width="10" height="5" class="window-mark"/>
      <rect x="560" y="164" width="10" height="5" class="window-mark"/>
      <rect x="640" y="164" width="10" height="5" class="window-mark"/>
      <rect x="720" y="165" width="10" height="5" class="window-mark"/>
      <rect x="800" y="166" width="10" height="5" class="window-mark"/>
      <rect x="880" y="167" width="10" height="5" class="window-mark"/>
      <rect x="960" y="168" width="10" height="5" class="window-mark"/>
      <rect x="1040" y="169" width="10" height="5" class="window-mark"/>

      <!-- MAIN CORRIDOR - curved -->
      <path d="M20,179 Q550,164 1100,174 L1100,200 Q550,190 20,205 Z" class="corridor"/>

      <!-- ===== ROW 1 ROOMS ===== -->

      <!-- Left cluster: small chambers -->
      <rect x="25" y="204" width="80" height="50" class="room-large"/>
      <text x="65" y="233" text-anchor="middle" class="assumption">large chamber</text>
      <rect x="25" y="258" width="38" height="28" class="room"/>
      <rect x="67" y="258" width="38" height="28" class="room"/>
      <rect x="25" y="290" width="38" height="28" class="room"/>
      <rect x="67" y="290" width="38" height="28" class="room"/>
      <rect x="25" y="322" width="38" height="28" class="room"/>
      <rect x="67" y="322" width="38" height="28" class="room"/>
      <rect x="25" y="354" width="38" height="28" class="room"/>
      <rect x="67" y="354" width="38" height="28" class="room"/>
      <rect x="25" y="386" width="38" height="28" class="room"/>
      <rect x="67" y="386" width="38" height="28" class="room"/>
      <text x="65" y="430" text-anchor="middle" class="cluster-count">~45 small chambers</text>

      <!-- Corridor -->
      <rect x="109" y="204" width="18" height="220" class="corridor"/>

      <!-- Cluster 2: small uniform chambers -->
      <rect x="131" y="204" width="32" height="26" class="room"/>
      <rect x="167" y="204" width="32" height="26" class="room"/>
      <rect x="203" y="204" width="32" height="26" class="room"/>
      <rect x="239" y="204" width="32" height="26" class="room"/>
      <rect x="131" y="234" width="32" height="26" class="room"/>
      <rect x="167" y="234" width="32" height="26" class="room"/>
      <rect x="203" y="234" width="32" height="26" class="room"/>
      <rect x="239" y="234" width="32" height="26" class="room"/>
      <rect x="131" y="264" width="140" height="10" class="corridor"/>
      <rect x="131" y="278" width="32" height="26" class="room"/>
      <rect x="167" y="278" width="32" height="26" class="room"/>
      <rect x="203" y="278" width="32" height="26" class="room"/>
      <rect x="239" y="278" width="32" height="26" class="room"/>
      <rect x="131" y="308" width="32" height="26" class="room"/>
      <rect x="167" y="308" width="32" height="26" class="room"/>
      <rect x="203" y="308" width="32" height="26" class="room"/>
      <rect x="239" y="308" width="32" height="26" class="room"/>
      <rect x="131" y="338" width="32" height="26" class="room"/>
      <rect x="167" y="338" width="32" height="26" class="room"/>
      <rect x="203" y="338" width="32" height="26" class="room"/>
      <rect x="239" y="338" width="32" height="26" class="room"/>
      <rect x="131" y="368" width="32" height="26" class="room"/>
      <rect x="167" y="368" width="32" height="26" class="room"/>
      <rect x="203" y="368" width="32" height="26" class="room"/>
      <rect x="239" y="368" width="32" height="26" class="room"/>
      <text x="200" y="412" text-anchor="middle" class="assumption">uniform small chambers</text>
      <text x="200" y="424" text-anchor="middle" class="cluster-count">~95 rooms</text>

      <!-- Corridor -->
      <rect x="275" y="204" width="18" height="220" class="corridor"/>

      <!-- Large open chamber -->
      <rect x="297" y="204" width="160" height="90" class="room-large"/>
      <circle cx="327" cy="240" r="4" class="pillar"/>
      <circle cx="377" cy="240" r="4" class="pillar"/>
      <circle cx="427" cy="240" r="4" class="pillar"/>
      <circle cx="327" cy="275" r="4" class="pillar"/>
      <circle cx="377" cy="275" r="4" class="pillar"/>
      <circle cx="427" cy="275" r="4" class="pillar"/>
      <text x="377" y="258" text-anchor="middle" class="assumption">large pillared hall</text>

      <!-- Smaller chambers near hall -->
      <rect x="297" y="298" width="50" height="35" class="room"/>
      <rect x="351" y="298" width="50" height="35" class="room"/>
      <rect x="405" y="298" width="52" height="35" class="room"/>
      <rect x="297" y="337" width="76" height="40" class="room"/>
      <text x="335" y="361" text-anchor="middle" class="assumption">chamber</text>
      <rect x="377" y="337" width="80" height="40" class="room"/>
      <text x="417" y="361" text-anchor="middle" class="assumption">chamber</text>
      <text x="377" y="396" text-anchor="middle" class="cluster-count">~35 rooms in this cluster</text>

      <!-- Corridor -->
      <rect x="461" y="204" width="18" height="220" class="corridor"/>

      <!-- Cluster with varied sizes -->
      <rect x="483" y="204" width="130" height="65" class="room-large"/>
      <text x="548" y="240" text-anchor="middle" class="assumption">large chamber</text>
      <text x="548" y="252" text-anchor="middle" class="assumption">vaulted ceiling</text>

      <rect x="483" y="273" width="42" height="30" class="room"/>
      <rect x="529" y="273" width="42" height="30" class="room"/>
      <rect x="575" y="273" width="38" height="30" class="room"/>
      <rect x="483" y="307" width="42" height="30" class="room"/>
      <rect x="529" y="307" width="42" height="30" class="room"/>
      <rect x="575" y="307" width="38" height="30" class="room"/>
      <text x="548" y="357" text-anchor="middle" class="cluster-count">~30 rooms</text>

      <!-- Water feature -->
      <rect x="483" y="365" width="60" height="50" class="room"/>
      <text x="513" y="392" text-anchor="middle" class="assumption">basins</text>
      <rect x="547" y="365" width="32" height="22" class="room"/>
      <rect x="547" y="391" width="32" height="24" class="room"/>
      <rect x="583" y="365" width="30" height="50" class="room"/>
      <text x="548" y="430" text-anchor="middle" class="cluster-count">~20 rooms · water channels</text>

      <!-- Corridor -->
      <rect x="617" y="204" width="18" height="220" class="corridor"/>

      <!-- Another residential-looking cluster -->
      <rect x="639" y="204" width="32" height="26" class="room"/>
      <rect x="675" y="204" width="32" height="26" class="room"/>
      <rect x="711" y="204" width="32" height="26" class="room"/>
      <rect x="747" y="204" width="32" height="26" class="room"/>
      <rect x="783" y="204" width="32" height="26" class="room"/>
      <rect x="639" y="234" width="32" height="26" class="room"/>
      <rect x="675" y="234" width="32" height="26" class="room"/>
      <rect x="711" y="234" width="32" height="26" class="room"/>
      <rect x="747" y="234" width="32" height="26" class="room"/>
      <rect x="783" y="234" width="32" height="26" class="room"/>
      <rect x="639" y="264" width="176" height="10" class="corridor"/>
      <rect x="639" y="278" width="32" height="26" class="room"/>
      <rect x="675" y="278" width="32" height="26" class="room"/>
      <rect x="711" y="278" width="32" height="26" class="room"/>
      <rect x="747" y="278" width="32" height="26" class="room"/>
      <rect x="783" y="278" width="32" height="26" class="room"/>
      <rect x="639" y="308" width="32" height="26" class="room"/>
      <rect x="675" y="308" width="32" height="26" class="room"/>
      <rect x="711" y="308" width="32" height="26" class="room"/>
      <rect x="747" y="308" width="32" height="26" class="room"/>
      <rect x="783" y="308" width="32" height="26" class="room"/>
      <rect x="639" y="338" width="32" height="26" class="room"/>
      <rect x="675" y="338" width="32" height="26" class="room"/>
      <rect x="711" y="338" width="32" height="26" class="room"/>
      <rect x="747" y="338" width="32" height="26" class="room"/>
      <rect x="783" y="338" width="32" height="26" class="room"/>
      <rect x="639" y="368" width="32" height="26" class="room"/>
      <rect x="675" y="368" width="32" height="26" class="room"/>
      <rect x="711" y="368" width="32" height="26" class="room"/>
      <rect x="747" y="368" width="32" height="26" class="room"/>
      <rect x="783" y="368" width="32" height="26" class="room"/>
      <text x="720" y="412" text-anchor="middle" class="assumption">uniform small chambers</text>
      <text x="720" y="424" text-anchor="middle" class="cluster-count">~100 rooms</text>

      <!-- Corridor -->
      <rect x="819" y="204" width="18" height="220" class="corridor"/>

      <!-- Right cluster: stairwell + varied -->
      <rect x="841" y="204" width="55" height="55" class="stairs"/>
      <text x="868" y="232" text-anchor="middle" class="room-label">Stairwell</text>
      <text x="868" y="244" text-anchor="middle" class="room-label">↕</text>
      <circle cx="868" cy="231" r="20" fill="none" stroke="#888" stroke-width="0.5"/>

      <rect x="900" y="204" width="50" height="35" class="room"/>
      <rect x="954" y="204" width="50" height="35" class="room"/>
      <rect x="1008" y="204" width="50" height="35" class="room"/>
      <rect x="1062" y="204" width="38" height="35" class="room"/>
      <rect x="841" y="265" width="50" height="35" class="room"/>
      <rect x="895" y="265" width="50" height="35" class="room"/>
      <rect x="949" y="265" width="50" height="35" class="room"/>
      <rect x="1003" y="265" width="50" height="35" class="room"/>
      <rect x="1057" y="265" width="43" height="35" class="room"/>
      <rect x="841" y="304" width="259" height="10" class="corridor"/>
      <rect x="841" y="318" width="50" height="35" class="room"/>
      <rect x="895" y="318" width="50" height="35" class="room"/>
      <rect x="949" y="318" width="50" height="35" class="room"/>
      <rect x="1003" y="318" width="50" height="35" class="room"/>
      <rect x="1057" y="318" width="43" height="35" class="room"/>
      <rect x="841" y="357" width="50" height="35" class="room"/>
      <rect x="895" y="357" width="50" height="35" class="room"/>
      <rect x="949" y="357" width="50" height="35" class="room"/>
      <rect x="1003" y="357" width="50" height="35" class="room"/>
      <rect x="1057" y="357" width="43" height="35" class="room"/>
      <text x="960" y="410" text-anchor="middle" class="assumption">small chambers &amp; narrow passages</text>
      <text x="960" y="422" text-anchor="middle" class="cluster-count">~80 rooms</text>

    </g> <!-- end clip -->

    <!-- TWISTING SECONDARY CORRIDOR - actually curving -->
    <path d="M20,428 C100,432 180,418 300,435 C420,452 480,420 600,440 C720,460 800,425 900,445 C1000,465 1050,435 1100,442"
          fill="none" stroke="#888" stroke-width="22" stroke-linecap="round" opacity="0.35"/>
    <path d="M20,428 C100,432 180,418 300,435 C420,452 480,420 600,440 C720,460 800,425 900,445 C1000,465 1050,435 1100,442"
          fill="none" stroke="#888" stroke-width="1"/>
    <text x="550" y="470" text-anchor="middle" class="assumption" style="font-size:10px;">twisting secondary passage — curves designed to disorient</text>

    <!-- ROW 2: Deeper rooms with more odd shapes -->
    <g clip-path="url(#curveClipLeft)">

      <!-- Oddly shaped chambers -->
      <path d="M30,480 L85,478 L90,515 L70,530 L25,525 Z" class="room" fill="#fff" stroke="#333"/>
      <path d="M95,476 L160,480 L165,520 L135,535 L90,520 Z" class="room" fill="#fff" stroke="#333"/>
      <path d="M30,535 L75,538 L80,570 L55,582 L25,575 Z" class="room" fill="#fff" stroke="#333"/>
      <path d="M85,525 L155,522 L162,565 L130,580 L80,572 Z" class="room" fill="#fff" stroke="#333"/>
      <path d="M30,585 L90,580 L95,620 L60,630 L25,620 Z" class="room" fill="#fff" stroke="#333"/>
      <text x="95" y="650" text-anchor="middle" class="assumption">oddly-shaped chambers</text>

      <!-- Twisting narrow passage -->
      <path d="M170,478 Q190,510 185,545 Q180,580 195,615 Q205,645 200,670"
            fill="none" stroke="#888" stroke-width="14" stroke-linecap="round" opacity="0.35"/>
      <path d="M170,478 Q190,510 185,545 Q180,580 195,615 Q205,645 200,670"
            fill="none" stroke="#888" stroke-width="1"/>

      <!-- More uniform chambers deeper -->
      <rect x="215" y="478" width="32" height="26" class="room"/>
      <rect x="251" y="478" width="32" height="26" class="room"/>
      <rect x="287" y="478" width="32" height="26" class="room"/>
      <rect x="323" y="478" width="32" height="26" class="room"/>
      <rect x="359" y="478" width="32" height="26" class="room"/>
      <rect x="215" y="508" width="32" height="26" class="room"/>
      <rect x="251" y="508" width="32" height="26" class="room"/>
      <rect x="287" y="508" width="32" height="26" class="room"/>
      <rect x="323" y="508" width="32" height="26" class="room"/>
      <rect x="359" y="508" width="32" height="26" class="room"/>
      <rect x="215" y="538" width="176" height="8" class="corridor"/>
      <rect x="215" y="550" width="32" height="26" class="room"/>
      <rect x="251" y="550" width="32" height="26" class="room"/>
      <rect x="287" y="550" width="32" height="26" class="room"/>
      <rect x="323" y="550" width="32" height="26" class="room"/>
      <rect x="359" y="550" width="32" height="26" class="room"/>
      <rect x="215" y="580" width="32" height="26" class="room"/>
      <rect x="251" y="580" width="32" height="26" class="room"/>
      <rect x="287" y="580" width="32" height="26" class="room"/>
      <rect x="323" y="580" width="32" height="26" class="room"/>
      <rect x="359" y="580" width="32" height="26" class="room"/>
      <text x="300" y="624" text-anchor="middle" class="cluster-count">~85 small chambers</text>

      <!-- Corridor -->
      <rect x="395" y="478" width="16" height="140" class="corridor"/>

      <!-- Large chamber with murals noted -->
      <rect x="415" y="478" width="110" height="60" class="room-large"/>
      <text x="470" y="510" text-anchor="middle" class="assumption">large chamber</text>
      <text x="470" y="522" text-anchor="middle" class="assumption">murals on walls</text>

      <!-- Medium chambers -->
      <rect x="415" y="542" width="110" height="50" class="room-large"/>
      <text x="470" y="570" text-anchor="middle" class="assumption">pillared chamber</text>
      <circle cx="440" cy="567" r="3" class="pillar"/>
      <circle cx="470" cy="567" r="3" class="pillar"/>
      <circle cx="500" cy="567" r="3" class="pillar"/>

      <!-- Corridor -->
      <rect x="529" y="478" width="16" height="140" class="corridor"/>

      <!-- Another twisting passage -->
      <path d="M549,478 Q565,510 560,540 Q555,570 570,600"
            fill="none" stroke="#888" stroke-width="14" stroke-linecap="round" opacity="0.35"/>

      <!-- More chambers -->
      <rect x="580" y="478" width="32" height="26" class="room"/>
      <rect x="616" y="478" width="32" height="26" class="room"/>
      <rect x="652" y="478" width="32" height="26" class="room"/>
      <rect x="688" y="478" width="32" height="26" class="room"/>
      <rect x="580" y="508" width="32" height="26" class="room"/>
      <rect x="616" y="508" width="32" height="26" class="room"/>
      <rect x="652" y="508" width="32" height="26" class="room"/>
      <rect x="688" y="508" width="32" height="26" class="room"/>
      <rect x="580" y="538" width="140" height="8" class="corridor"/>
      <rect x="580" y="550" width="32" height="26" class="room"/>
      <rect x="616" y="550" width="32" height="26" class="room"/>
      <rect x="652" y="550" width="32" height="26" class="room"/>
      <rect x="688" y="550" width="32" height="26" class="room"/>
      <rect x="580" y="580" width="32" height="26" class="room"/>
      <rect x="616" y="580" width="32" height="26" class="room"/>
      <rect x="652" y="580" width="32" height="26" class="room"/>
      <rect x="688" y="580" width="32" height="26" class="room"/>
      <text x="650" y="624" text-anchor="middle" class="cluster-count">~75 small chambers</text>

      <!-- Corridor -->
      <rect x="724" y="478" width="16" height="140" class="corridor"/>

      <!-- Storage-like larger rooms -->
      <rect x="744" y="478" width="55" height="38" class="room"/>
      <rect x="803" y="478" width="55" height="38" class="room"/>
      <rect x="862" y="478" width="55" height="38" class="room"/>
      <rect x="921" y="478" width="55" height="38" class="room"/>
      <rect x="980" y="478" width="55" height="38" class="room"/>
      <rect x="1039" y="478" width="55" height="38" class="room"/>
      <rect x="744" y="520" width="55" height="38" class="room"/>
      <rect x="803" y="520" width="55" height="38" class="room"/>
      <rect x="862" y="520" width="55" height="38" class="room"/>
      <rect x="921" y="520" width="55" height="38" class="room"/>
      <rect x="980" y="520" width="55" height="38" class="room"/>
      <rect x="1039" y="520" width="55" height="38" class="room"/>
      <text x="900" y="576" text-anchor="middle" class="assumption">larger chambers — broad shelving grooves in walls</text>
      <text x="900" y="588" text-anchor="middle" class="cluster-count">~50 rooms</text>

      <!-- Second stairwell -->
      <rect x="744" y="590" width="48" height="48" class="stairs"/>
      <text x="768" y="618" text-anchor="middle" class="room-label">Stairs ↕</text>

      <!-- Large basin room -->
      <rect x="800" y="590" width="75" height="48" class="room"/>
      <text x="837" y="618" text-anchor="middle" class="assumption">large basin</text>

      <!-- Deep corridor with fabrials -->
      <path d="M20,645 C200,660 400,635 600,655 C800,675 1000,648 1100,660"
            fill="none" stroke="#888" stroke-width="16" stroke-linecap="round" opacity="0.35"/>
      <path d="M20,645 C200,660 400,635 600,655 C800,675 1000,648 1100,660"
            fill="none" stroke="#888" stroke-width="1"/>
      <text x="550" y="685" text-anchor="middle" class="assumption" style="font-size:10px;">deep passage — metal traces (gold &amp; copper) embedded in walls</text>

      <!-- Deepest area fading -->
      <rect x="20" y="695" width="1080" height="40" fill="#eee" opacity="0.5"/>
      <text x="550" y="720" text-anchor="middle" class="assumption" style="font-size:10px; fill:#aaa;">continues deeper into tower</text>

    </g> <!-- end clip -->

    <!-- Section boundary -->
    <line x1="1105" y1="35" x2="1105" y2="740" class="section-divider"/>
  </g>

  <!-- ==================== -->
  <!-- UNEXPLORED SECTION (RIGHT) -->
  <!-- ==================== -->
  <g transform="translate(1220, 60)">
    <text x="450" y="20" text-anchor="middle" class="section-label">SECTION 15 — UNEXPLORED</text>

    <!-- Outer balcony - dashed outline -->
    <path d="M20,35 Q400,25 850,40 L850,170 Q400,155 20,170 Z" fill="url(#balconyTile)" opacity="0.4"/>
    <path d="M20,35 Q400,25 850,40 L850,170 Q400,155 20,170 Z" fill="none" stroke="#999" stroke-width="1" stroke-dasharray="6,3"/>
    <!-- Partial railing -->
    <path d="M20,40 Q300,28 550,35" fill="none" stroke="#555" stroke-width="1.5"/>
    <path d="M550,35 Q650,38 750,42" fill="none" stroke="#555" stroke-width="1.5" stroke-dasharray="4,4"/>
    <text x="380" y="105" text-anchor="middle" class="unknown-label">Balcony</text>

    <!-- Tower outer wall -->
    <path d="M20,168 Q400,156 750,170 L750,178 Q400,164 20,178 Z" fill="#111"/>

    <!-- Entry points from Section 14 -->
    <rect x="20" y="184" width="22" height="12" fill="#555" opacity="0.4" rx="1"/>
    <text x="48" y="193" class="room-label" style="fill:#555;">entry</text>
    <rect x="20" y="310" width="22" height="12" fill="#555" opacity="0.4" rx="1"/>
    <text x="48" y="319" class="room-label" style="fill:#555;">entry</text>
    <rect x="20" y="440" width="22" height="12" fill="#555" opacity="0.4" rx="1"/>
    <text x="48" y="449" class="room-label" style="fill:#555;">entry</text>
    <rect x="20" y="580" width="22" height="12" fill="#555" opacity="0.4" rx="1"/>
    <text x="48" y="589" class="room-label" style="fill:#555;">entry</text>

    <!-- Expected outline of interior - very light dashed -->
    <path d="M20,178 Q400,166 700,178 L700,700 Q400,715 20,700 Z" fill="url(#unknownHatch)" opacity="0.5"/>
    <path d="M20,178 Q400,166 700,178 L700,700 Q400,715 20,700 Z" fill="none" stroke="#bbb" stroke-width="1" stroke-dasharray="8,4"/>

    <!-- Faint expected corridor lines -->
    <path d="M20,195 Q400,183 700,195" fill="none" stroke="#ccc" stroke-width="0.7" stroke-dasharray="4,3"/>
    <path d="M20,440 Q350,430 650,445" fill="none" stroke="#ccc" stroke-width="0.7" stroke-dasharray="4,3"/>
    <path d="M200,195 L200,650" fill="none" stroke="#ccc" stroke-width="0.7" stroke-dasharray="4,3"/>
    <path d="M400,195 L400,650" fill="none" stroke="#ccc" stroke-width="0.7" stroke-dasharray="4,3"/>

    <text x="350" y="420" text-anchor="middle" class="unknown-label" style="font-size:22px;">UNEXPLORED</text>

    <!-- Deeper fade -->
    <rect x="20" y="700" width="680" height="35" fill="#eee" opacity="0.4"/>
    <text x="350" y="722" text-anchor="middle" class="assumption" style="fill:#bbb;">continues deeper into tower</text>

    <!-- MOUNTAIN ROCK -->
    <path d="M700,35 Q760,35 820,70 Q880,140 900,250 Q910,400 905,500 Q910,600 900,700 L700,700
             Q718,650 712,590 Q730,530 722,470 Q740,410 732,350
             Q745,290 738,230 Q730,170 722,120 Q715,70 710,45 Z"
          fill="url(#rockPattern)"/>
    <path d="M700,35 Q710,45 715,70 Q722,120 730,170 Q738,230 745,290 Q738,350 730,410
             Q740,470 722,530 Q730,590 718,650 L700,700"
          fill="none" stroke="#444" stroke-width="2.5"/>
    <text x="810" y="360" text-anchor="middle" style="font-size:16px; fill:#ddd; font-weight:bold;" transform="rotate(12,810,360)">MOUNTAIN</text>
    <text x="810" y="380" text-anchor="middle" style="font-size:11px; fill:#ccc;" transform="rotate(12,810,380)">ROCK</text>
  </g>

  <!-- ==================== -->
  <!-- LEGEND -->
  <!-- ==================== -->
  <g transform="translate(70, 830)">
    <text x="0" y="0" class="legend-title">LEGEND</text>

    <rect x="0" y="15" width="16" height="11" class="room"/>
    <text x="21" y="24" class="legend-text">Surveyed chamber</text>

    <rect x="160" y="15" width="16" height="11" class="room-large"/>
    <text x="181" y="24" class="legend-text">Large chamber</text>

    <rect x="290" y="15" width="16" height="11" class="corridor"/>
    <text x="311" y="24" class="legend-text">Passage / corridor</text>

    <rect x="430" y="15" width="16" height="11" class="stairs"/>
    <text x="451" y="24" class="legend-text">Stairwell (connects floors)</text>

    <rect x="620" y="15" width="16" height="11" class="window-mark"/>
    <text x="641" y="24" class="legend-text">Window</text>

    <rect x="720" y="15" width="16" height="11" fill="url(#unknownHatch)" stroke="#bbb" stroke-width="0.5"/>
    <text x="741" y="24" class="legend-text">Unexplored</text>

    <rect x="840" y="15" width="16" height="11" fill="url(#rockPattern)"/>
    <text x="861" y="24" class="legend-text">Mountain rock</text>

    <line x1="960" y1="15" x2="990" y2="15" stroke="#000" stroke-width="1.5" stroke-dasharray="8,3"/>
    <text x="995" y="19" class="legend-text">Section boundary</text>

    <circle cx="8" cy="45" r="3" class="pillar"/>
    <text x="21" y="49" class="legend-text">Pillar</text>

    <text x="100" y="49" class="legend-text" style="font-style:italic; fill:#777;">Italic labels = assumptions based on survey, not confirmed purpose</text>
  </g>

  <!-- Notes -->
  <g transform="translate(70, 895)">
    <text x="0" y="0" class="legend-title">SURVEY NOTES</text>
    <text x="0" y="16" class="legend-text">· Passages twist and curve throughout — possibly designed to disorient invaders</text>
    <text x="0" y="31" class="legend-text">· Several chambers contain murals of unknown animals · Gold and copper metal embedded in deep passage walls (purpose unknown)</text>
    <text x="0" y="46" class="legend-text">· Oddly-shaped chamber groupings in deeper areas do not follow standard architectural patterns</text>
    <text x="0" y="61" class="legend-text">· Section 15 boundary and room estimates are projected from Section 14 layout — actual layout may differ significantly</text>
  </g>

  <!-- ==================== -->
  <!-- WRIT OF AUTHORIZATION -->
  <!-- ==================== -->
  <g transform="translate(750, 970)">
    <!-- Parchment background -->
    <rect x="0" y="0" width="1100" height="325" rx="4" ry="4" fill="#f5f0e5" stroke="#8a7a5a" stroke-width="1.5"/>
    <!-- Inner border -->
    <rect x="12" y="12" width="1076" height="301" rx="2" ry="2" fill="none" stroke="#c4a24d" stroke-width="0.7"/>
    <!-- Corner flourishes -->
    <path d="M18,18 Q18,35 35,35" fill="none" stroke="#c4a24d" stroke-width="0.7"/>
    <path d="M18,18 Q35,18 35,35" fill="none" stroke="#c4a24d" stroke-width="0.7"/>
    <path d="M1082,18 Q1082,35 1065,35" fill="none" stroke="#c4a24d" stroke-width="0.7"/>
    <path d="M1082,18 Q1065,18 1065,35" fill="none" stroke="#c4a24d" stroke-width="0.7"/>
    <path d="M18,307 Q18,290 35,290" fill="none" stroke="#c4a24d" stroke-width="0.7"/>
    <path d="M18,307 Q35,307 35,290" fill="none" stroke="#c4a24d" stroke-width="0.7"/>
    <path d="M1082,307 Q1082,290 1065,290" fill="none" stroke="#c4a24d" stroke-width="0.7"/>
    <path d="M1082,307 Q1065,307 1065,290" fill="none" stroke="#c4a24d" stroke-width="0.7"/>

    <text x="550" y="45" text-anchor="middle" style="font-size:16px; font-weight:bold; fill:#1a1a2e; font-variant:small-caps; letter-spacing:3px;">Writ of Exploration &amp; Authorization</text>
    <line x1="200" y1="55" x2="900" y2="55" stroke="#c4a24d" stroke-width="0.5"/>

    <text x="550" y="80" text-anchor="middle" style="font-size:11px; fill:#333; font-style:italic;">By order of Highprince Hatham, in service to the Coalition of Monarchs at Urithiru</text>

    <text x="40" y="110" style="font-size:11px; fill:#222;">Let it be known that the bearer of this writ is granted full authority to enter, survey, and explore</text>
    <text x="40" y="127" style="font-size:11px; fill:#222;">the uncharted areas designated as Section 15 of Level 3, Southern Arc, including all chambers,</text>
    <text x="40" y="144" style="font-size:11px; fill:#222;">passages, and balcony structures therein, up to and including those areas where the tower</text>
    <text x="40" y="161" style="font-size:11px; fill:#222;">structure melds into the mountain rock.</text>

    <text x="40" y="186" style="font-size:11px; fill:#222;">The bearer and their company are authorized to clear obstructions, mark passages, and secure</text>
    <text x="40" y="203" style="font-size:11px; fill:#222;">chambers for future habitation. Any functioning fabrials, artifacts, or items of scholarly interest</text>
    <text x="40" y="220" style="font-size:11px; fill:#222;">are to be catalogued and reported to the surveyors' office. Nothing is to be removed without</text>
    <text x="40" y="237" style="font-size:11px; fill:#222;">express approval from the Highprince's steward. Furthermore, the bearer is granted authority to</text>
    <text x="40" y="254" style="font-size:11px; fill:#222;">detain any unauthorized persons found within Section 15 and escort them to the nearest guard post</text>
    <text x="40" y="271" style="font-size:11px; fill:#222;">for questioning.</text>

    <text x="700" y="297" text-anchor="start" style="font-size:11px; fill:#222; font-style:italic;">— Highprince Hatham, Urithiru</text>
    <!-- Seal -->
    <circle cx="980" cy="284" r="18" fill="none" stroke="#8a7a5a" stroke-width="1.5"/>
    <circle cx="980" cy="284" r="14" fill="none" stroke="#8a7a5a" stroke-width="0.5"/>
    <text x="980" y="288" text-anchor="middle" style="font-size:10px; fill:#8a7a5a; font-weight:bold;">SEAL</text>
  </g>
</svg>